<?xml version="1.0" encoding="utf-8"?>
<svg viewBox="229.5475 270.3901 47 47" xmlns="http://www.w3.org/2000/svg">
  <defs>
    <clipPath id="clip0_40_75">
      <rect width="47" height="47" fill="white"/>
    </clipPath>
  </defs>
  <g clip-path="url(#clip0_40_75)" transform="matrix(1, 0, 0, 1, 229.5474735132973, 270.39011023029843)">
    <path d="M0 13.9531V45.623C0 46.3835 0.616508 47 1.37695 47H45.623C46.3835 47 47 46.3835 47 45.623V13.9531L45.2345 13.0352H1.83575L0 13.9531Z" fill="#F5F2F1"/>
    <path d="M47 13.9531V45.623C47 46.3831 46.3831 47 45.623 47H23.5V13.0352H45.2347L47 13.9531Z" fill="#E8E1DE"/>
    <path d="M47 4.31445C47 3.55401 46.3835 2.9375 45.623 2.9375H1.37695C0.616508 2.9375 0 3.55401 0 4.31445V13.9531H47V4.31445Z" fill="#F47160"/>
    <path d="M47 4.31445V13.9531H23.5V2.9375H45.623C46.3831 2.9375 47 3.55438 47 4.31445Z" fill="#FC5832"/>
    <path d="M6.97656 0C6.21612 0 5.59961 0.616508 5.59961 1.37695V6.15039C5.59961 6.91084 6.21612 7.52734 6.97656 7.52734C7.73701 7.52734 8.35352 6.91084 8.35352 6.15039V1.37695C8.35352 0.616508 7.73701 0 6.97656 0ZM15.2383 0C14.4778 0 13.8613 0.616508 13.8613 1.37695V6.15039C13.8613 6.91084 14.4778 7.52734 15.2383 7.52734C15.9987 7.52734 16.6152 6.91084 16.6152 6.15039V1.37695C16.6152 0.616508 15.9987 0 15.2383 0ZM23.5 0C22.7396 0 22.123 0.616508 22.123 1.37695V6.15039C22.123 6.91084 22.7396 7.52734 23.5 7.52734C24.2604 7.52734 24.877 6.91084 24.877 6.15039V1.37695C24.877 0.616508 24.2604 0 23.5 0Z" fill="#55696E"/>
    <path d="M24.877 1.37695V6.15039C24.877 6.91047 24.2601 7.52734 23.5 7.52734V0C24.2601 0 24.877 0.616875 24.877 1.37695ZM31.7617 0C31.0013 0 30.3848 0.616508 30.3848 1.37695V6.15039C30.3848 6.91084 31.0013 7.52734 31.7617 7.52734C32.5222 7.52734 33.1387 6.91084 33.1387 6.15039V1.37695C33.1387 0.616508 32.5222 0 31.7617 0ZM40.0234 0C39.263 0 38.6465 0.616508 38.6465 1.37695V6.15039C38.6465 6.91084 39.263 7.52734 40.0234 7.52734C40.7839 7.52734 41.4004 6.91084 41.4004 6.15039V1.37695C41.4004 0.616508 40.7839 0 40.0234 0Z" fill="#495959"/>
    <path d="M15.2383 20.8379H9.73047C8.97002 20.8379 8.35352 21.4544 8.35352 22.2148V27.7227C8.35352 28.4831 8.97002 29.0996 9.73047 29.0996H15.2383C15.9987 29.0996 16.6152 28.4831 16.6152 27.7227V22.2148C16.6152 21.4544 15.9987 20.8379 15.2383 20.8379Z" fill="#DBD1CC"/>
    <path d="M37.2695 20.8379H31.7617C31.0013 20.8379 30.3848 21.4544 30.3848 22.2148V27.7227C30.3848 28.4831 31.0013 29.0996 31.7617 29.0996H37.2695C38.03 29.0996 38.6465 28.4831 38.6465 27.7227V22.2148C38.6465 21.4544 38.03 20.8379 37.2695 20.8379Z" fill="#C6BBB6"/>
    <path d="M26.2539 31.7617H20.7461C19.9856 31.7617 19.3691 32.3782 19.3691 33.1387V38.6465C19.3691 39.4069 19.9856 40.0234 20.7461 40.0234H26.2539C27.0144 40.0234 27.6309 39.4069 27.6309 38.6465V33.1387C27.6309 32.3782 27.0144 31.7617 26.2539 31.7617Z" fill="#DBD1CC"/>
    <path d="M27.6309 33.1387V38.6465C27.6309 39.4066 27.014 40.0234 26.2539 40.0234H23.5V31.7617H26.2539C27.014 31.7617 27.6309 32.3786 27.6309 33.1387Z" fill="#C6BBB6"/>
    <path d="M26.2539 20.8379H20.7461C19.9856 20.8379 19.3691 21.4544 19.3691 22.2148V27.7227C19.3691 28.4831 19.9856 29.0996 20.7461 29.0996H26.2539C27.0144 29.0996 27.6309 28.4831 27.6309 27.7227V22.2148C27.6309 21.4544 27.0144 20.8379 26.2539 20.8379Z" fill="#DBD1CC"/>
    <path d="M27.6309 22.2148V27.7227C27.6309 28.4827 27.014 29.0996 26.2539 29.0996H23.5V20.8379H26.2539C27.014 20.8379 27.6309 21.4548 27.6309 22.2148ZM37.2695 31.7617H31.7617C31.0013 31.7617 30.3848 32.3782 30.3848 33.1387V38.6465C30.3848 39.4069 31.0013 40.0234 31.7617 40.0234H37.2695C38.03 40.0234 38.6465 39.4069 38.6465 38.6465V33.1387C38.6465 32.3782 38.03 31.7617 37.2695 31.7617Z" fill="#C6BBB6"/>
    <path d="M16.1069 33.0617C15.5168 32.5819 14.6496 32.6715 14.1699 33.2614L11.3703 36.705L10.6036 36.0763C10.0155 35.5939 9.14796 35.6799 8.66575 36.2679C8.18355 36.8559 8.26938 37.7235 8.85743 38.2057L10.6934 39.7111C11.2844 40.1958 12.155 40.1054 12.6349 39.5151L16.3067 34.9987C16.7865 34.4086 16.697 33.5414 16.1069 33.0617Z" fill="#50DBC1"/>
  </g>
</svg>