<?xml version="1.0" encoding="utf-8"?>
<svg viewBox="292.2054 263.2361 45.4333 46.2167" xmlns="http://www.w3.org/2000/svg">
  <defs>
    <clipPath id="clip0_40_92">
      <rect width="47" height="47" fill="white"/>
    </clipPath>
  </defs>
  <g clip-path="url(#clip0_40_92)" transform="matrix(1, 0, 0, 1, 291.42218451831013, 262.452793217492)">
    <path d="M46.2165 10.1833V36.8167C46.2165 37.6477 45.8864 38.4447 45.2988 39.0323C44.7112 39.6199 43.9142 39.95 43.0832 39.95H3.91654C3.08552 39.95 2.28855 39.6199 1.70094 39.0323C1.11332 38.4447 0.783203 37.6477 0.783203 36.8167V10.1833L1.56654 9.39999H45.4332L46.2165 10.1833Z" fill="#E1EFFF"/>
    <path d="M46.2165 7.04999V10.1833H0.783203V7.04999C0.783203 6.21898 1.11332 5.422 1.70094 4.83439C2.28855 4.24677 3.08552 3.91666 3.91654 3.91666H43.0832C43.9142 3.91666 44.7112 4.24677 45.2988 4.83439C45.8864 5.422 46.2165 6.21898 46.2165 7.04999Z" fill="#D14A7B"/>
    <path d="M9.39994 2.34999C9.39994 1.48475 8.69851 0.783325 7.83327 0.783325C6.96802 0.783325 6.2666 1.48475 6.2666 2.34999V5.48333C6.2666 6.34857 6.96802 7.04999 7.83327 7.04999C8.69851 7.04999 9.39994 6.34857 9.39994 5.48333V2.34999Z" fill="#E1EFFF"/>
    <path d="M17.2329 2.34999C17.2329 1.48475 16.5315 0.783325 15.6663 0.783325C14.801 0.783325 14.0996 1.48475 14.0996 2.34999V5.48333C14.0996 6.34857 14.801 7.04999 15.6663 7.04999C16.5315 7.04999 17.2329 6.34857 17.2329 5.48333V2.34999Z" fill="#E1EFFF"/>
    <path d="M25.0669 2.34999C25.0669 1.48475 24.3655 0.783325 23.5003 0.783325C22.635 0.783325 21.9336 1.48475 21.9336 2.34999V5.48333C21.9336 6.34857 22.635 7.04999 23.5003 7.04999C24.3655 7.04999 25.0669 6.34857 25.0669 5.48333V2.34999Z" fill="#E1EFFF"/>
    <path d="M32.8999 2.34999C32.8999 1.48475 32.1985 0.783325 31.3333 0.783325C30.468 0.783325 29.7666 1.48475 29.7666 2.34999V5.48333C29.7666 6.34857 30.468 7.04999 31.3333 7.04999C32.1985 7.04999 32.8999 6.34857 32.8999 5.48333V2.34999Z" fill="#E1EFFF"/>
    <path d="M40.7329 2.34999C40.7329 1.48475 40.0315 0.783325 39.1663 0.783325C38.301 0.783325 37.5996 1.48475 37.5996 2.34999V5.48333C37.5996 6.34857 38.301 7.04999 39.1663 7.04999C40.0315 7.04999 40.7329 6.34857 40.7329 5.48333V2.34999Z" fill="#E1EFFF"/>
    <path d="M10.9665 41.5167C10.812 41.5165 10.661 41.4707 10.5325 41.3851C7.38977 39.2896 7.0498 35.3009 7.0498 33.6833C7.0498 26.8534 13.4285 22.9877 13.6995 22.8271C13.8777 22.7263 14.0883 22.6992 14.2862 22.7517C14.4842 22.8042 14.6536 22.9321 14.7584 23.1081C14.8632 23.284 14.8949 23.4939 14.8467 23.693C14.7986 23.892 14.6744 24.0643 14.5009 24.1729C14.4421 24.205 8.61647 27.7566 8.61647 33.6833C8.61647 35.0487 8.88829 38.406 11.4012 40.0816C11.5411 40.1749 11.6473 40.3107 11.704 40.4689C11.7608 40.6272 11.7651 40.7995 11.7163 40.9604C11.6676 41.1213 11.5684 41.2623 11.4333 41.3625C11.2983 41.4626 11.1346 41.5167 10.9665 41.5167ZM38.9793 36.2762C38.9266 36.2761 38.8741 36.2706 38.8226 36.2597C38.7218 36.2392 38.626 36.1991 38.5407 36.1416C38.4554 36.0841 38.3822 36.0104 38.3254 35.9246C38.2686 35.8389 38.2293 35.7428 38.2096 35.6418C38.1899 35.5408 38.1903 35.437 38.2108 35.3362C38.3233 34.7923 38.381 34.2386 38.3831 33.6833C38.3831 27.7566 32.5575 24.205 32.4987 24.1729C32.3252 24.0643 32.201 23.892 32.1529 23.693C32.1047 23.4939 32.1365 23.284 32.2412 23.1081C32.346 22.9321 32.5155 22.8042 32.7134 22.7517C32.9113 22.6992 33.1219 22.7263 33.3001 22.8271C33.5711 22.9877 39.9498 26.8534 39.9498 33.6833C39.9475 34.3436 39.879 35.0021 39.7454 35.6487C39.7094 35.8255 39.6136 35.9845 39.474 36.0988C39.3344 36.2132 39.1597 36.2758 38.9793 36.2762Z" fill="#7A93A0"/>
    <path d="M23.4997 34.4667C29.1238 34.4667 33.6831 29.9074 33.6831 24.2833C33.6831 18.6592 29.1238 14.1 23.4997 14.1C17.8756 14.1 13.3164 18.6592 13.3164 24.2833C13.3164 29.9074 17.8756 34.4667 23.4997 34.4667Z" fill="#D14A7B"/>
    <path d="M28.9834 22.7167H25.0667V18.8C25.0667 18.5922 24.9842 18.393 24.8373 18.2461C24.6904 18.0992 24.4912 18.0167 24.2834 18.0167H22.7167C22.509 18.0167 22.3097 18.0992 22.1628 18.2461C22.0159 18.393 21.9334 18.5922 21.9334 18.8V22.7167H18.0167C17.809 22.7167 17.6097 22.7992 17.4628 22.9461C17.3159 23.093 17.2334 23.2922 17.2334 23.5V25.0667C17.2334 25.2744 17.3159 25.4737 17.4628 25.6206C17.6097 25.7675 17.809 25.85 18.0167 25.85H21.9334V29.7667C21.9334 29.9744 22.0159 30.1737 22.1628 30.3206C22.3097 30.4675 22.509 30.55 22.7167 30.55H24.2834C24.4912 30.55 24.6904 30.4675 24.8373 30.3206C24.9842 30.1737 25.0667 29.9744 25.0667 29.7667V25.85H28.9834C29.1912 25.85 29.3904 25.7675 29.5373 25.6206C29.6842 25.4737 29.7667 25.2744 29.7667 25.0667V23.5C29.7667 23.2922 29.6842 23.093 29.5373 22.9461C29.3904 22.7992 29.1912 22.7167 28.9834 22.7167Z" fill="white"/>
    <path d="M13.3161 46.2167C15.4792 46.2167 17.2327 44.4631 17.2327 42.3C17.2327 40.1369 15.4792 38.3833 13.3161 38.3833C11.153 38.3833 9.39941 40.1369 9.39941 42.3C9.39941 44.4631 11.153 46.2167 13.3161 46.2167Z" fill="#6C8493"/>
    <path d="M36.1601 47C35.8091 47.0004 35.4684 46.882 35.1934 46.6639L34.5785 46.1798C34.4957 46.117 34.4263 46.0382 34.3742 45.9482C34.3222 45.8582 34.2886 45.7587 34.2753 45.6556C34.2621 45.5525 34.2696 45.4478 34.2973 45.3475C34.3249 45.2473 34.3723 45.1536 34.4365 45.0719C34.5008 44.9901 34.5807 44.922 34.6716 44.8715C34.7624 44.8209 34.8624 44.789 34.9658 44.7775C35.0691 44.766 35.1737 44.7752 35.2734 44.8046C35.3732 44.8339 35.4661 44.8828 35.5467 44.9485L36.1616 45.4326L39.1023 41.5825C39.4222 41.179 39.6594 40.7164 39.8004 40.2212C39.9414 39.726 39.9833 39.2078 39.9238 38.6964C39.8643 38.1849 39.7045 37.6902 39.4536 37.2406C39.2028 36.7909 38.8657 36.3952 38.4617 36.0759C38.0577 35.7567 37.5947 35.5202 37.0993 35.3801C36.6038 35.24 36.0856 35.1989 35.5742 35.2593C35.0629 35.3197 34.5684 35.4802 34.1192 35.7319C33.67 35.9835 33.2748 36.3213 32.9562 36.7258L30.0164 40.5767L30.625 41.0717C30.7103 41.1338 30.7822 41.2125 30.8363 41.303C30.8905 41.3935 30.9258 41.494 30.9401 41.5985C30.9545 41.703 30.9476 41.8093 30.9198 41.9111C30.8921 42.0129 30.8441 42.108 30.7787 42.1907C30.7133 42.2735 30.6319 42.3422 30.5393 42.3927C30.4467 42.4432 30.3448 42.4745 30.2399 42.4847C30.1349 42.4949 30.0289 42.4838 29.9283 42.4521C29.8277 42.4203 29.7346 42.3686 29.6545 42.3L29.0396 41.8151C28.7133 41.5581 28.5024 41.182 28.4534 40.7695C28.4043 40.357 28.521 39.9419 28.7779 39.6155L31.7186 35.7639C32.1637 35.1977 32.716 34.7247 33.3439 34.3719C33.9718 34.0192 34.663 33.7936 35.3781 33.708C36.0932 33.6223 36.8182 33.6784 37.5116 33.873C38.205 34.0675 38.8533 34.3968 39.4195 34.8419C39.9857 35.287 40.4587 35.8393 40.8114 36.4672C41.1642 37.0951 41.3898 37.7863 41.4754 38.5014C41.5611 39.2165 41.505 39.9415 41.3104 40.6349C41.1159 41.3283 40.7866 41.9766 40.3415 42.5428L37.4017 46.3937C37.2745 46.5581 37.1158 46.6954 36.9349 46.7976C36.754 46.8998 36.5545 46.9649 36.3481 46.989C36.2857 46.9962 36.2229 46.9999 36.1601 47Z" fill="#6C8493"/>
  </g>
</svg>