<?xml version="1.0" encoding="utf-8"?>
<svg viewBox="162.4689 149.6361 142.9452 150.8868" xmlns="http://www.w3.org/2000/svg">
  <defs>
    <clipPath id="clip0_14_142">
      <rect width="50" height="52.7778" fill="white"/>
    </clipPath>
  </defs>
  <g clip-path="url(#clip0_14_142)" transform="matrix(2.858916997909546, 0, 0, 2.858916997909546, 162.4681878457693, 149.6355918293536)" style="">
    <path d="M2.85736 39.2536H47.1432C48.9669 35.7481 50.0002 31.7575 50.0002 27.5225C50.0002 13.5743 38.8074 2.26718 25.0003 2.26718C11.1932 2.26718 0.000244141 13.5743 0.000244141 27.5225C0.000244141 31.7575 1.0337 35.7481 2.85736 39.2536Z" fill="white"/>
    <path d="M17.1777 29.8532C16.9646 29.8534 16.7582 29.7785 16.5941 29.6414C16.4061 29.4849 16.2874 29.2594 16.264 29.0145C16.2406 28.7696 16.3145 28.5253 16.4694 28.3354C18.5779 25.7505 21.6871 24.2679 24.9996 24.2679C28.309 24.2679 31.4163 25.7482 33.5248 28.3292C33.6016 28.4231 33.6593 28.5314 33.6946 28.6479C33.7299 28.7644 33.7422 28.8868 33.7307 29.0081C33.7192 29.1294 33.6842 29.2472 33.6276 29.3548C33.5711 29.4624 33.4941 29.5577 33.4011 29.6352C33.2132 29.7918 32.9715 29.8665 32.729 29.8431C32.4866 29.8196 32.2633 29.6999 32.1082 29.5102C30.3499 27.3578 27.7589 26.1234 24.9996 26.1234C22.2378 26.1234 19.6453 27.3598 17.8868 29.5154C17.8007 29.6212 17.6924 29.7064 17.5698 29.7648C17.4472 29.8232 17.3132 29.8534 17.1777 29.8532Z" fill="#BECAF5"/>
    <path d="M32.0119 30.1891C31.7893 30.1338 31.588 30.009 31.4484 29.8252C30.6185 28.7318 30.3953 26.9642 30.352 25.695C29.8114 26.3311 29.2441 26.8632 28.7019 27.2885C27.6456 28.1172 26.3423 28.5673 24.9997 28.5673C24.9484 28.5673 24.8972 28.5654 24.8461 28.5641L24.8456 28.5671L24.8477 28.5847C24.8519 28.6224 25.232 32.3745 22.328 35.3531C22.2379 35.3497 22.1477 35.3496 22.0576 35.3529L24.8823 38.7678L24.9997 38.9098L32.1774 30.2321C32.1222 30.2177 32.0674 30.2029 32.0119 30.1891Z" fill="#FFAA7B"/>
    <path d="M25 28.5673C23.6576 28.5673 22.3542 28.1172 21.2979 27.2885C20.7558 26.8632 20.1884 26.3311 19.6478 25.695C19.6045 26.9642 19.3812 28.7318 18.5513 29.8252C18.4119 30.009 18.2105 30.1339 17.9879 30.1891C17.9324 30.203 17.8776 30.2177 17.8223 30.2319L22.1847 35.5059C22.3117 35.5052 22.3884 35.5112 22.3884 35.5112C25.4309 32.4378 25 28.5673 25 28.5673Z" fill="#FC9460"/>
    <path d="M42.6544 45.4022C44.4496 43.5937 45.9631 41.5208 47.1432 39.254C46.1396 36.4215 44.0851 33.7924 39.944 33.4504C39.2533 33.3934 38.8859 33.1227 38.0719 32.659C37.4518 32.305 36.8181 31.976 36.1721 31.6729L25.9583 44.0213C25.7204 44.3089 25.3712 44.4739 25.0003 44.4739C24.6294 44.4739 24.2802 44.3089 24.0424 44.0213L19.2051 38.1732C19.2077 38.2698 19.213 38.3681 19.2225 38.4691C18.8475 38.4295 17.9734 38.3645 16.902 38.463C15.5983 38.5828 13.7531 38.9801 12.3664 40.1923C11.0179 41.371 10.3342 43.0951 10.3342 45.3166V47.9464L11.624 48.8609C14.0728 50.4312 16.81 51.5835 19.7379 52.2174L19.7414 52.2164L21.5219 52.5335L21.591 52.5442C22.7209 52.7 23.8599 52.7781 25.0003 52.778C29.8897 52.778 34.4505 51.3591 38.3029 48.9077L42.6544 45.4022Z" fill="#1FA2EA"/>
    <path d="M42.6544 45.4023C42.2735 43.8384 41.4865 42.6528 40.6851 41.7961C39.8283 40.8802 38.3029 41.4976 38.3029 42.7577V48.9079C39.8775 47.9059 41.3369 46.7301 42.6544 45.4023ZM11.9288 32.6591C11.1148 33.1228 10.7473 33.3935 10.0566 33.4505C5.91555 33.7925 3.86109 36.4216 2.85742 39.2541C4.53679 42.4823 6.88789 45.298 9.72235 47.5126L10.4872 48.055V45.3166C10.4872 37.3397 19.3965 38.6458 19.3965 38.6458C19.3847 38.5546 19.3755 38.463 19.369 38.3712L13.8285 31.6729C13.1826 31.9761 12.5489 32.3051 11.9288 32.6591Z" fill="#218EE8"/>
    <path d="M24.856 0.000201625C24.4301 0.35336 23.2836 1.43438 23.0897 2.97556C22.9528 4.06421 23.3244 5.14801 24.1942 6.19677C24.2204 6.22841 24.2461 6.26192 24.2715 6.29634C24.9134 6.42314 25.5767 6.38036 26.1974 6.17213C27.3938 5.77021 29.2698 5.36768 30.7992 6.06286C32.5993 6.88113 32.4485 9.38427 32.3492 10.7695C32.3146 11.2511 32.428 11.7341 32.6856 12.1425C32.8378 12.3836 32.9585 12.6393 33.0543 12.8917C33.1734 13.2055 33.2581 13.736 33.3104 14.0652C33.5867 13.93 34.1857 13.7827 34.5236 13.8309C34.5649 12.3828 34.6972 10.6155 34.6972 10.6155C36.142 3.46726 30.2777 -0.00907575 24.856 0.000201625Z" fill="#2A428C"/>
    <path d="M23.21 0.112492C17.8345 0.852414 17.3236 3.93127 17.3212 5.06084C17.3207 5.29772 17.1908 5.51729 16.98 5.62088C14.1839 6.99497 15.6915 13.8238 15.6915 13.8238C15.9723 13.8428 16.4702 13.9576 16.6894 14.0649C16.7431 13.7275 16.8307 13.1891 16.9545 12.8679C17.0488 12.6231 17.1667 12.3759 17.314 12.1424C17.5687 11.7372 17.6871 11.2597 17.6514 10.7811C17.5509 9.39945 17.3952 6.88322 19.2005 6.06259C20.7299 5.3674 22.606 5.76994 23.8023 6.17186C24.0237 6.24597 24.2515 6.29928 24.4826 6.33112C24.4302 6.24992 24.3732 6.17183 24.3119 6.09722C21.4524 2.64913 25.0885 0.012296 25.1024 0.00219401C24.4629 -0.009145 23.8278 0.0274491 23.21 0.112492Z" fill="#1C2E7A"/>
    <path d="M35.1278 13.8129C34.7091 13.4254 33.7731 13.6218 33.4125 13.8591C33.4912 14.3581 33.4963 14.866 33.4278 15.3665L33.0023 18.4973C33.0023 18.7496 32.9945 18.9972 32.98 19.2406C34.0176 19.5568 34.6351 18.6157 34.7219 17.9699C34.7592 17.6919 34.8205 17.4177 34.9052 17.1505C35.1811 16.2798 36.1768 14.7841 35.1278 13.8129Z" fill="#FFAA7B"/>
    <path d="M14.8722 13.8129C15.2908 13.4254 16.2269 13.6218 16.5875 13.8591C16.5088 14.3581 16.5037 14.866 16.5723 15.3665L16.9978 18.4973C16.9978 18.7496 17.0056 18.9972 17.0201 19.2406C15.9825 19.5568 15.365 18.6157 15.2782 17.9699C15.2409 17.6919 15.1796 17.4177 15.0949 17.1505C14.8189 16.2798 13.8232 14.7841 14.8722 13.8129Z" fill="#FC9460"/>
    <path d="M33.2584 12.8915C33.1626 12.6391 33.0419 12.3835 32.8897 12.1423C32.6321 11.7339 32.5187 11.2509 32.5532 10.7693C32.6526 9.38398 32.5992 6.67478 30.7991 5.85651C29.2699 5.16133 27.3939 5.56386 26.1976 5.96568C25.485 6.20459 24.7182 6.22489 23.9942 6.02402C22.7903 7.1537 22.7637 9.40253 22.8527 10.6261C22.8892 11.1163 22.7679 11.6053 22.5071 12.0203C22.3562 12.2596 22.2355 12.5127 22.1389 12.7633C21.8257 13.5762 21.7343 14.4579 21.8517 15.3212L22.2876 18.5283C22.2876 23.139 24.7239 26.2728 26.7963 27.8986C27.0207 28.0744 27.257 28.234 27.5035 28.3764C27.9297 28.1811 28.3319 27.9361 28.7018 27.6465C30.7254 26.059 33.1043 22.999 33.1043 18.497L33.5298 15.3662C33.6432 14.5315 33.5572 13.6791 33.2584 12.8915Z" fill="#FFC7AB"/>
    <path d="M26.8193 27.6464C24.7958 26.059 22.4168 22.999 22.4168 18.497L21.9912 15.3654C21.8766 14.5225 21.9658 13.6617 22.2717 12.8679C22.366 12.6232 22.4839 12.376 22.6312 12.1424C22.8859 11.7372 23.0042 11.2597 22.9686 10.7811C22.8764 9.51327 22.9108 7.11754 24.3117 6.09724C24.1389 6.0654 23.9686 6.02145 23.8019 5.96571C22.6056 5.56379 20.7296 5.16136 19.2003 5.85654C17.3951 6.67707 17.3467 9.39957 17.4471 10.7812C17.4827 11.2598 17.3643 11.7373 17.1096 12.1425C16.9623 12.3761 16.8444 12.6233 16.7501 12.868C16.4442 13.6618 16.3551 14.5226 16.4696 15.3655L16.8952 18.4971C16.8952 22.9991 19.2742 26.0591 21.2976 27.6465C22.3539 28.4751 23.6573 28.9251 24.9998 28.9251C25.96 28.9249 26.9063 28.6938 27.7605 28.2508C27.4289 28.0792 27.1139 27.8769 26.8193 27.6464Z" fill="#FFAA7B"/>
    <path d="M32.0041 30.2005L24.7656 38.9517L27.7921 42.0443L36.1676 31.9187C36.3665 31.6782 36.2847 31.3111 36.0022 31.1814C34.9466 30.697 33.8671 30.2928 32.7411 29.972C32.6095 29.9342 32.4699 29.9357 32.3392 29.9762C32.2084 30.0168 32.092 30.0947 32.0041 30.2005Z" fill="#73C3F9"/>
    <path d="M27.5403 41.7404L24.9999 38.6691L22.2557 35.3514C21.8365 35.3441 20.6205 35.4006 19.8484 36.2232C19.3502 36.7538 19.1395 37.4965 19.2193 38.4322L23.9245 44.1206C24.4847 44.7978 25.5151 44.7978 26.0753 44.1206L27.5403 42.3494C27.6109 42.264 27.6496 42.1562 27.6496 42.0449C27.6496 41.9336 27.6109 41.8258 27.5403 41.7404Z" fill="#49B1F7"/>
    <path d="M18.0429 30.2583C17.941 30.1351 17.8058 30.0445 17.6539 29.9974C17.502 29.9502 17.3398 29.9486 17.187 29.9928C16.0864 30.3104 15.0299 30.7077 13.9963 31.1821C13.7143 31.3116 13.632 31.6774 13.8307 31.9176L19.3958 38.6456C18.9449 35.2337 22.388 35.5114 22.388 35.5114L18.0429 30.2583Z" fill="#1FA2EA"/>
    <path d="M34.2122 35.4291V44.8344H36.0489V35.4291C36.0489 32.8424 35.1528 30.3209 33.5256 28.329C33.2027 27.9339 32.6239 27.8778 32.2327 28.204C32.1397 28.2815 32.0627 28.3768 32.0062 28.4844C31.9496 28.592 31.9146 28.7098 31.9031 28.8311C31.8916 28.9524 31.9039 29.0748 31.9392 29.1913C31.9745 29.3077 32.0322 29.4161 32.109 29.51C33.4652 31.1704 34.2122 33.2724 34.2122 35.4291ZM14.8703 42.3815C14.6267 42.3815 14.3931 42.2837 14.2209 42.1097C14.0487 41.9358 13.9519 41.6998 13.9519 41.4537V35.4291C13.9519 32.8452 14.8463 30.3258 16.4702 28.3353C16.5469 28.2413 16.6412 28.1634 16.7477 28.1062C16.8542 28.049 16.9707 28.0135 17.0908 28.0018C17.2108 27.9901 17.332 28.0024 17.4473 28.038C17.5627 28.0736 17.6699 28.1319 17.763 28.2093C17.9509 28.3658 18.0697 28.5913 18.0931 28.8362C18.1164 29.0811 18.0426 29.3254 17.8877 29.5153C16.5341 31.1745 15.7887 33.2748 15.7887 35.4291V41.4537C15.7887 41.5756 15.765 41.6962 15.7188 41.8088C15.6726 41.9213 15.605 42.0236 15.5197 42.1098C15.4344 42.1959 15.3332 42.2643 15.2217 42.3109C15.1103 42.3575 14.9909 42.3815 14.8703 42.3815ZM20.8986 50.602C20.7986 50.8988 20.5673 51.1463 20.2492 51.2512C20.1082 51.2977 19.9589 51.3127 19.8116 51.2948C19.6644 51.277 19.5227 51.2269 19.3966 51.1481L19.7414 52.2163C20.3309 52.3438 20.9248 52.4495 21.5219 52.5334L20.8986 50.602Z" fill="#DEEEFF"/>
    <path d="M15.9789 43.2757H13.9537C13.2212 43.2748 12.5032 43.4812 11.8809 43.8714L13.1595 41.7303C13.98 40.3563 15.9525 40.3563 16.773 41.7303L18.0516 43.8714C17.4293 43.4812 16.7113 43.2749 15.9789 43.2757Z" fill="#2A428C"/>
    <path d="M19.8666 46.6662C19.3768 46.3578 18.9544 46.2728 18.6109 46.4131C18.0772 46.6313 17.8986 47.3318 17.8968 47.3389L17.8922 47.3575L17.8404 47.4286L17.588 46.6468C17.4779 46.3035 17.2628 46.0044 16.9737 45.7925C16.6846 45.5806 16.3365 45.4667 15.9793 45.4673H13.9541C13.5487 45.4668 13.1566 45.6136 12.8495 45.881C12.6011 45.868 12.0346 45.7909 11.688 45.3719C11.4355 45.0664 11.355 44.6465 11.4476 44.1224C12.1521 43.5321 13.0389 43.2096 13.9541 43.2109H15.9793C16.808 43.2094 17.6158 43.4736 18.2864 43.9653C18.9571 44.457 19.4561 45.1509 19.7117 45.9473L19.9635 46.7276C19.9312 46.7069 19.8988 46.6864 19.8666 46.6662Z" fill="#3C58A0"/>
    <path d="M19.9173 46.5843L20.9943 49.9207C21.1856 50.5131 20.8651 51.15 20.2787 51.3431C19.6923 51.5364 19.0619 51.2126 18.8707 50.6202L17.804 47.3156C17.804 47.3156 18.2411 45.5294 19.9173 46.5843Z" fill="#4B6BB2"/>
    <path d="M11.5633 44.0291C10.9342 44.5167 10.4664 45.1855 10.2215 45.9473L9.71729 47.5091C10.3334 47.9908 10.9713 48.4431 11.6291 48.8647L12.345 46.6469C12.4565 46.3003 12.6749 45.9988 12.9683 45.7866L12.9681 45.7865C12.9682 45.7865 11.1648 45.8559 11.5633 44.0291Z" fill="#2A428C"/>
    <path d="M33.5562 41.4291C33.6574 41.6422 33.8532 41.7943 34.139 41.8823C34.0737 42.0547 33.9673 42.4323 34.1094 42.7966C34.2206 43.0818 34.4588 43.2953 34.8173 43.4313L35.876 44.2241C35.907 44.4163 36.0992 45.2232 37.1347 45.264C37.1457 45.3878 37.1922 45.6163 37.3786 45.7957C37.5746 45.9842 37.8682 46.0634 38.2497 46.0344C38.6116 45.4448 38.8029 44.7647 38.802 44.071C38.802 42.0085 37.147 40.3366 35.1054 40.3366C34.5669 40.3361 34.0348 40.455 33.5466 40.6849C33.496 40.833 33.421 41.1443 33.5562 41.4291Z" fill="#DEEEFF"/>
    <path d="M38.303 45.9444C37.1689 46.0631 37.2172 45.1793 37.2172 45.1793C36.0336 45.1793 35.9558 44.1762 35.9558 44.1762L34.8588 43.3547C33.7056 42.9259 34.2561 41.8248 34.2561 41.8248C33.22 41.5743 33.6563 40.6374 33.6581 40.6338C32.3362 41.2029 31.4094 42.5273 31.4094 44.0706C31.4094 46.133 33.0644 47.8049 35.106 47.8049C36.4712 47.805 37.6628 47.0566 38.303 45.9444Z" fill="#D3DCFB"/>
    <path d="M34.1393 41.8822C34.074 42.0546 33.9676 42.4322 34.1097 42.7965C34.2209 43.0817 34.4591 43.2952 34.8176 43.4312L35.8763 44.224C35.9073 44.4162 36.0995 45.2232 37.135 45.2639C37.1364 45.2799 37.1384 45.2976 37.1413 45.3167C37.367 44.9412 37.4861 44.5102 37.4854 44.0709C37.4854 42.7433 36.42 41.667 35.1058 41.667C34.7692 41.6668 34.4364 41.7389 34.1296 41.8788C34.1329 41.8798 34.1359 41.8811 34.1393 41.8822Z" fill="#D3DCFB"/>
    <path d="M35.1053 46.4742C36.0235 46.4742 36.8197 45.9485 37.2165 45.179C36.0329 45.179 35.955 44.1759 35.955 44.1759L34.858 43.3543C33.7094 42.9274 34.251 41.8333 34.2552 41.8249C33.3609 42.1706 32.7256 43.0453 32.7256 44.0702C32.7256 45.3979 33.791 46.4742 35.1053 46.4742Z" fill="#A8B7EF"/>
    <path d="M35.1058 41.9655C35.5755 41.9655 35.9731 41.6563 36.1117 41.2287V39.2855C36.1117 38.7244 35.6613 38.2694 35.1058 38.2694C34.5503 38.2694 34.0999 38.7244 34.0999 39.2855V41.2287C34.2384 41.6563 34.6361 41.9655 35.1058 41.9655Z" fill="#6289CC"/>
    <path d="M35.1058 41.9117C34.5503 41.9117 34.0999 41.4567 34.0999 40.8955V43.8073C34.0999 44.3685 34.5503 44.8235 35.1058 44.8235C35.6614 44.8235 36.1117 44.3685 36.1117 43.8073V40.8955C36.1117 41.4567 35.6613 41.9117 35.1058 41.9117Z" fill="#4B6BB2"/>
    <path d="M42.8083 9.79941C40.5776 11.4292 37.4854 14.7682 37.4854 20.7553C37.4854 30.6745 45.8252 29.993 48.9037 34.9393C49.616 32.594 50.0001 30.1038 50.0001 27.5226C50.0001 20.6164 47.2551 14.3587 42.8083 9.79941ZM7.19211 9.79941C9.4228 11.4292 12.515 14.7682 12.515 20.7553C12.515 30.6745 4.1752 29.993 1.09666 34.9393C0.384424 32.594 0.000244141 30.1038 0.000244141 27.5226C0.000244141 20.6164 2.74542 14.3587 7.19211 9.79941Z" fill="white"/>
  </g>
</svg>