<?xml version="1.0" encoding="utf-8"?>
<svg viewBox="188.8905 164.3828 136.8912 164.8282" xmlns="http://www.w3.org/2000/svg">
  <defs>
    <clipPath id="clip0_3_163">
      <rect width="49" height="59" fill="white"/>
    </clipPath>
  </defs>
  <g clip-path="url(#clip0_3_163)" transform="matrix(2.7936978340148926, 0, 0, 2.7936978340148926, 188.89050574437528, 164.38283020828413)" style="">
    <path d="M40.8783 53.7287C42.9414 53.7287 44.6138 52.0805 44.6138 50.0472C44.6138 48.014 42.9414 46.3657 40.8783 46.3657C38.8153 46.3657 37.1428 48.014 37.1428 50.0472C37.1428 52.0805 38.8153 53.7287 40.8783 53.7287Z" fill="#333333"/>
    <path d="M40.8783 54.1897C40.047 54.1897 39.2344 53.9467 38.5431 53.4915C37.8519 53.0364 37.3132 52.3894 36.9951 51.6325C36.6769 50.8755 36.5937 50.0426 36.7559 49.2391C36.9181 48.4355 37.3184 47.6974 37.9062 47.1181C38.494 46.5388 39.243 46.1442 40.0583 45.9844C40.8737 45.8246 41.7188 45.9066 42.4868 46.2201C43.2549 46.5337 43.9113 47.0646 44.3732 47.7458C44.835 48.427 45.0815 49.2279 45.0815 50.0472C45.0799 51.1454 44.6366 52.1981 43.8487 52.9746C43.0608 53.7511 41.9926 54.1881 40.8783 54.1897ZM40.8783 46.8271C40.232 46.8271 39.6002 47.016 39.0628 47.3699C38.5254 47.7238 38.1065 48.2268 37.8592 48.8153C37.6119 49.4039 37.5472 50.0514 37.6733 50.6762C37.7995 51.3009 38.1107 51.8747 38.5678 52.3251C39.0249 52.7755 39.6072 53.0822 40.2411 53.2064C40.875 53.3306 41.5321 53.2668 42.1292 53.023C42.7263 52.7791 43.2366 52.3663 43.5956 51.8366C43.9547 51.3069 44.1462 50.6842 44.1461 50.0472C44.1452 49.1934 43.8005 48.3749 43.1879 47.7712C42.5753 47.1675 41.7447 46.828 40.8783 46.8271Z" fill="#1B7941"/>
    <path d="M42.8937 44.8115V31.8394C42.8937 27.8039 39.7535 24.3261 35.664 24.1284C34.6338 24.0787 33.604 24.2356 32.6371 24.5896C31.6703 24.9435 30.7863 25.4872 30.0388 26.1876C29.2913 26.888 28.6958 27.7306 28.2883 28.6645C27.8808 29.5983 27.6698 30.6039 27.6682 31.6204V40.545C27.6878 41.9741 27.159 43.3577 26.1877 44.419C25.2164 45.4802 23.8743 46.1408 22.4299 46.2685C21.6613 46.3195 20.8903 46.2144 20.1646 45.9598C19.4389 45.7051 18.774 45.3064 18.211 44.7882C17.648 44.27 17.199 43.6434 16.8917 42.9472C16.5845 42.2511 16.4255 41.5001 16.4247 40.7409V27.254C16.4249 27.0826 16.4734 26.9147 16.5647 26.7688C16.656 26.623 16.7866 26.505 16.9419 26.428C17.5261 26.1057 18.0383 25.6708 18.4481 25.1491C18.858 24.6275 19.1569 24.0298 19.3272 23.3918C19.3581 23.2845 19.4139 23.1857 19.4901 23.1033C19.5663 23.0208 19.6609 22.9569 19.7664 22.9166C25.4555 20.7792 29.6147 14.6119 29.7719 7.29638C29.7726 7.24028 29.7621 7.18461 29.7408 7.13257C29.7195 7.08054 29.688 7.03319 29.648 6.99326C29.608 6.95334 29.5604 6.92164 29.5079 6.90001C29.4553 6.87838 29.399 6.86724 29.3421 6.86724H28.0844C27.9733 6.86724 27.8668 6.9105 27.7879 6.98761C27.7091 7.06471 27.6644 7.1694 27.6635 7.27886C27.4886 14.9267 22.4524 21.1401 16.1426 21.614H14.5992C8.2895 21.1415 3.25331 14.9304 3.07839 7.27886C3.07753 7.1694 3.0328 7.06471 2.95395 6.98761C2.87511 6.9105 2.76854 6.86724 2.65746 6.86724H1.39842C1.3415 6.86724 1.28514 6.87838 1.23263 6.90001C1.18011 6.92164 1.13247 6.95334 1.09249 6.99326C1.0525 7.03319 1.02096 7.08054 0.999693 7.13257C0.978425 7.18461 0.967856 7.24028 0.9686 7.29638C1.12575 14.6091 5.28453 20.7787 10.9736 22.9166C11.0792 22.9568 11.1738 23.0206 11.2499 23.1031C11.3261 23.1856 11.3817 23.2844 11.4123 23.3918C11.5828 24.0298 11.8818 24.6274 12.2916 25.149C12.7014 25.6706 13.2136 26.1056 13.7976 26.428C13.953 26.5044 14.0838 26.622 14.1753 26.7676C14.2667 26.9131 14.3152 27.0809 14.3153 27.2521V40.5225C14.3153 44.6197 17.5037 48.1477 21.6582 48.3496C22.7044 48.4003 23.7502 48.2411 24.7321 47.8817C25.7141 47.5223 26.6118 46.9702 27.3708 46.2588C28.1298 45.5474 28.7344 44.6915 29.148 43.7431C29.5615 42.7946 29.7753 41.7733 29.7766 40.7409V31.8131C29.7579 30.4142 30.2756 29.0599 31.2263 28.021C32.177 26.9821 33.4906 26.3351 34.9044 26.2095C35.6569 26.1595 36.4119 26.2622 37.1225 26.5114C37.8331 26.7606 38.4842 27.1509 39.0356 27.6581C39.5869 28.1654 40.0267 28.7787 40.3278 29.4603C40.6288 30.1419 40.7847 30.8771 40.7857 31.6204V44.811C40.7871 44.9812 40.731 45.147 40.6263 45.2822C40.5215 45.4175 40.3741 45.5146 40.2072 45.5582C38.6289 45.951 37.2507 46.8987 36.3318 48.2228C35.4128 49.547 35.0165 51.1565 35.2173 52.7485C35.4182 54.3405 36.2023 55.8054 37.4223 56.8675C38.6423 57.9296 40.214 58.5158 41.8418 58.5158C43.4696 58.5158 45.0413 57.9296 46.2613 56.8675C47.4813 55.8054 48.2654 54.3405 48.4663 52.7485C48.6671 51.1565 48.2708 49.547 47.3518 48.2228C46.4329 46.8987 45.0547 45.951 43.4764 45.5582C43.309 45.5151 43.1608 45.4184 43.0553 45.2832C42.9498 45.148 42.8929 44.982 42.8937 44.8115Z" fill="#1B7941"/>
    <path d="M41.8432 59C41.7431 59 41.643 59 41.542 58.994C39.7214 58.8989 38.004 58.1316 36.7314 56.8449C35.4589 55.5583 34.7246 53.8466 34.6748 52.0505C34.6446 50.4579 35.1634 48.9024 36.1465 47.6381C37.1296 46.3738 38.5188 45.4756 40.087 45.0903C40.1476 45.073 40.2009 45.0366 40.2385 44.9867C40.2762 44.9367 40.2962 44.876 40.2956 44.8138V31.6204C40.2943 30.9438 40.1526 30.2746 39.8791 29.654C39.6056 29.0334 39.2062 28.4745 38.7054 28.0117C38.2047 27.5464 37.6114 27.1886 36.963 26.9612C36.3147 26.7337 35.6255 26.6414 34.939 26.6902C33.648 26.8043 32.4486 27.3959 31.5822 28.3461C30.7157 29.2962 30.2464 30.5344 30.2686 31.8117V40.741C30.2673 41.8388 30.0399 42.925 29.6001 43.9336C29.1604 44.9423 28.5174 45.8525 27.7101 46.609C26.9029 47.3655 25.9482 47.9527 24.9039 48.3348C23.8596 48.717 22.7475 48.8862 21.6348 48.8322C19.499 48.7015 17.4963 47.7653 16.0424 46.2179C14.5885 44.6705 13.795 42.6307 13.8266 40.522V27.2517C13.826 27.1697 13.8023 27.0895 13.7581 27.0201C13.7139 26.9506 13.651 26.8947 13.5764 26.8585C12.9324 26.5068 12.3672 26.0306 11.9146 25.4583C11.4621 24.886 11.1315 24.2295 10.9428 23.5282C10.9337 23.4926 10.9163 23.4596 10.8919 23.4318C10.8676 23.404 10.8369 23.3823 10.8025 23.3683C4.78643 21.1097 0.639339 14.6534 0.481257 7.30697C0.478489 7.18705 0.500206 7.0678 0.545119 6.95632C0.590031 6.84483 0.657223 6.74337 0.742701 6.65798C0.82824 6.57193 0.930226 6.50343 1.04277 6.45644C1.15531 6.40945 1.27619 6.38489 1.39842 6.38418H2.65653C2.89593 6.38355 3.12592 6.47606 3.29651 6.6416C3.46711 6.80714 3.56453 7.03233 3.56761 7.26826C3.73691 14.5898 8.59631 20.6792 14.6343 21.1309H16.1412C22.1432 20.6806 27.005 14.5911 27.1719 7.26964C27.175 7.03371 27.2724 6.80852 27.443 6.64298C27.6136 6.47744 27.8436 6.38494 28.083 6.38556H29.3407C29.4634 6.38591 29.5848 6.41029 29.6978 6.45729C29.8109 6.5043 29.9133 6.57298 29.9992 6.65936C30.0846 6.74485 30.1518 6.84639 30.1966 6.95796C30.2414 7.06954 30.263 7.18885 30.2602 7.30882C30.1025 14.6548 25.9573 21.1097 19.9394 23.3697C19.9043 23.3835 19.873 23.4053 19.848 23.4332C19.823 23.4612 19.805 23.4945 19.7954 23.5305C19.6068 24.2316 19.2763 24.888 18.8239 25.4601C18.3715 26.0322 17.8065 26.5083 17.1627 26.8599C17.088 26.8965 17.0251 26.9529 16.981 27.0227C16.9369 27.0926 16.9133 27.1731 16.9129 27.2554V40.7423C16.9148 41.4348 17.0605 42.1196 17.341 42.7546C17.6215 43.3895 18.0308 43.9612 18.5438 44.4344C19.0562 44.9106 19.6634 45.2766 20.3269 45.5094C20.9904 45.7422 21.6957 45.8367 22.3981 45.7868C23.7194 45.6699 24.9469 45.0644 25.8336 44.092C26.7204 43.1195 27.2007 41.8523 27.178 40.5451V31.6204C27.1793 30.5382 27.4036 29.4675 27.8373 28.4732C28.2709 27.479 28.9049 26.5819 29.7008 25.8363C30.4967 25.0906 31.438 24.5121 32.4675 24.1356C33.497 23.7592 34.5934 23.5927 35.6901 23.6462C37.7948 23.7767 39.7679 24.7004 41.2003 26.2258C42.6326 27.7511 43.4145 29.7612 43.3838 31.8394V44.8115C43.3827 44.8748 43.403 44.9367 43.4415 44.9873C43.4801 45.038 43.5346 45.0746 43.5966 45.0913C45.2889 45.5146 46.7662 46.5323 47.7511 47.9531C48.7359 49.374 49.1606 51.1003 48.9453 52.8079C48.73 54.5155 47.8897 56.0869 46.5819 57.2271C45.2742 58.3672 43.5892 58.9977 41.8432 59ZM35.2875 25.714C36.8058 25.7103 38.2678 26.2806 39.3723 27.3074C39.9715 27.8605 40.4495 28.5286 40.7768 29.2706C41.1041 30.0126 41.2738 30.8127 41.2754 31.6218V44.8115C41.2775 45.0893 41.1852 45.3597 41.0132 45.5798C40.8412 45.7999 40.5995 45.957 40.3265 46.026C38.9727 46.3589 37.7735 47.1344 36.9249 48.226C36.0763 49.3175 35.6285 50.6604 35.6546 52.0353C35.6979 53.5854 36.3318 55.0626 37.4302 56.173C38.5286 57.2834 40.0109 57.9454 41.5822 58.0274C43.1114 58.0903 44.6098 57.5922 45.788 56.6295C46.9662 55.6668 47.7404 54.3078 47.9611 52.8152C48.1817 51.3226 47.833 49.8024 46.9825 48.5485C46.132 47.2945 44.84 46.3958 43.3562 46.026C43.0828 45.9568 42.8406 45.7995 42.6681 45.5793C42.4957 45.359 42.4027 45.0883 42.404 44.8101V31.8394C42.4345 30.0089 41.749 28.237 40.4897 26.8912C39.2304 25.5454 37.4938 24.7289 35.6401 24.611C34.6759 24.5639 33.712 24.7103 32.8069 25.0413C31.9018 25.3723 31.0743 25.881 30.3746 26.5365C29.6749 27.192 29.1175 27.9808 28.7363 28.8549C28.3551 29.729 28.158 30.6703 28.1569 31.6218V40.5451C28.179 42.0969 27.6042 43.5995 26.548 44.7508C25.4918 45.902 24.0325 46.6165 22.4636 46.7506C21.6269 46.8103 20.7867 46.6977 19.9966 46.4199C19.2064 46.1422 18.4836 45.7054 17.8741 45.1374C17.2635 44.5733 16.7765 43.8922 16.443 43.1358C16.1094 42.3794 15.9364 41.5638 15.9345 40.7391V27.254C15.9343 26.9933 16.0076 26.7377 16.1463 26.5157C16.285 26.2938 16.4835 26.1142 16.7198 25.997C17.2448 25.7049 17.7047 25.3115 18.0719 24.8403C18.4391 24.369 18.7062 23.8297 18.8572 23.2544C18.9092 23.0757 19.0026 22.9114 19.1301 22.7745C19.2577 22.6375 19.4157 22.5317 19.5919 22.4653C25.2258 20.3487 29.1148 14.2717 29.2808 7.33371L28.1518 7.34938C27.9488 15.1355 22.6993 21.6061 16.1787 22.0938H14.5969C8.04068 21.6047 2.79169 15.1337 2.58731 7.34892H1.46062C1.63273 14.28 5.51978 20.3473 11.1485 22.4639C11.3249 22.5303 11.483 22.6362 11.6105 22.7734C11.738 22.9105 11.8312 23.0751 11.8828 23.254C12.034 23.8292 12.3013 24.3686 12.6686 24.8399C13.0359 25.3111 13.4957 25.7047 14.0207 25.997C14.2568 26.1137 14.4553 26.2928 14.5941 26.5143C14.7328 26.7358 14.8063 26.9909 14.8064 27.2512V40.5215C14.7756 42.3819 15.4725 44.1826 16.7525 45.5502C18.0326 46.9178 19.7976 47.7474 21.6816 47.867C22.6615 47.9144 23.641 47.7653 24.5607 47.4287C25.4804 47.0921 26.3213 46.575 27.0323 45.9088C27.7433 45.2426 28.3096 44.441 28.6971 43.5527C29.0846 42.6644 29.2851 41.7078 29.2864 40.741V31.8131C29.2653 30.2911 29.8295 28.8177 30.8656 27.689C31.9018 26.5603 33.333 25.86 34.8717 25.7287C35.0106 25.7204 35.1495 25.714 35.2875 25.714Z" fill="white"/>
    <path d="M1.42554 0.483284H3.53019C4.07597 0.483284 4.5994 0.69696 4.98533 1.07731C5.37126 1.45765 5.58807 1.97351 5.58807 2.5114V2.70499C5.58807 3.24288 5.37126 3.75874 4.98533 4.13909C4.5994 4.51943 4.07597 4.73311 3.53019 4.73311H1.42554C1.17746 4.73311 0.939536 4.63598 0.764115 4.4631C0.588694 4.29022 0.490143 4.05573 0.490143 3.81124V1.40516C0.490143 1.16066 0.588694 0.926178 0.764115 0.753294C0.939536 0.580409 1.17746 0.483284 1.42554 0.483284Z" fill="#1B7941"/>
    <path d="M3.43195 5.21465H1.46995C1.08024 5.21416 0.706635 5.06137 0.431067 4.78979C0.1555 4.51821 0.000468326 4.15 -2.67029e-05 3.76593V1.44973C0.000468326 1.06565 0.1555 0.697449 0.431067 0.425866C0.706635 0.154284 1.08024 0.00149495 1.46995 0.00100708L3.43429 0.00100708C4.12972 0.0101209 4.79352 0.288778 5.28203 0.776661C5.77053 1.26454 6.04443 1.9224 6.04443 2.60783C6.04443 3.29326 5.77053 3.95111 5.28203 4.439C4.79352 4.92688 4.12972 5.20554 3.43429 5.21465H3.43195ZM1.46995 0.968972C1.34 0.969094 1.2154 1.02003 1.1235 1.11059C1.03161 1.20116 0.979928 1.32395 0.979804 1.45203V3.76593C0.979928 3.89397 1.03162 4.01672 1.12353 4.10721C1.21544 4.1977 1.34004 4.24853 1.46995 4.24853H3.43429C3.87588 4.24853 4.29938 4.07565 4.61163 3.76791C4.92388 3.46018 5.0993 3.0428 5.0993 2.6076C5.0993 2.1724 4.92388 1.75502 4.61163 1.44728C4.29938 1.13955 3.87588 0.966667 3.43429 0.966667L1.46995 0.968972Z" fill="white"/>
    <path d="M29.0914 4.73081H26.9867C26.4409 4.73081 25.9175 4.51713 25.5316 4.13678C25.1457 3.75644 24.9288 3.24058 24.9288 2.70269V2.5091C24.9288 1.97121 25.1457 1.45535 25.5316 1.075C25.9175 0.694656 26.4409 0.48098 26.9867 0.48098H29.0914C29.3395 0.48098 29.5774 0.578105 29.7528 0.75099C29.9282 0.923874 30.0268 1.15836 30.0268 1.40285V3.80893C30.0268 4.05343 29.9282 4.28791 29.7528 4.4608C29.5774 4.63368 29.3395 4.73081 29.0914 4.73081Z" fill="#1B7941"/>
    <path d="M29.0469 5.21387H27.0849C26.7346 5.21846 26.3869 5.15442 26.0619 5.02548C25.7369 4.89653 25.4411 4.70525 25.1917 4.46272C24.9424 4.2202 24.7443 3.93128 24.6092 3.61272C24.474 3.29417 24.4045 2.95232 24.4045 2.60704C24.4045 2.26176 24.474 1.91992 24.6092 1.60137C24.7443 1.28281 24.9424 0.993886 25.1917 0.751365C25.4411 0.508844 25.7369 0.317558 26.0619 0.188613C26.3869 0.0596677 26.7346 -0.00436814 27.0849 0.000222856H29.0469C29.4367 0.000710726 29.8103 0.1535 30.0858 0.425082C30.3614 0.696664 30.5164 1.06487 30.5169 1.44894V3.76515C30.5164 4.14922 30.3614 4.51742 30.0858 4.78901C29.8103 5.06059 29.4367 5.21338 29.0469 5.21387ZM27.0849 0.968188C26.8663 0.968188 26.6498 1.01063 26.4478 1.0931C26.2458 1.17556 26.0622 1.29643 25.9076 1.44881C25.753 1.60118 25.6303 1.78207 25.5467 1.98116C25.463 2.18025 25.4199 2.39363 25.4199 2.60912C25.4199 2.82461 25.463 3.03799 25.5467 3.23708C25.6303 3.43616 25.753 3.61706 25.9076 3.76943C26.0622 3.92181 26.2458 4.04268 26.4478 4.12514C26.6498 4.20761 26.8663 4.25005 27.0849 4.25005H29.0469C29.1768 4.25005 29.3014 4.1992 29.3932 4.1087C29.485 4.01819 29.5366 3.89544 29.5366 3.76745V1.44894C29.536 1.32131 29.4842 1.1991 29.3924 1.10902C29.3006 1.01894 29.1764 0.968308 29.0469 0.968188H27.0849ZM41.8076 57.1562C40.7901 57.1562 39.7955 56.8589 38.9494 56.3018C38.1034 55.7446 37.444 54.9527 37.0546 54.0263C36.6652 53.0998 36.5633 52.0803 36.7618 51.0968C36.9603 50.1133 37.4503 49.2098 38.1698 48.5007C38.8893 47.7916 39.806 47.3087 40.804 47.1131C41.8019 46.9174 42.8364 47.0179 43.7764 47.4016C44.7165 47.7854 45.52 48.4352 46.0853 49.2691C46.6506 50.1029 46.9523 51.0831 46.9523 52.086C46.9507 53.4302 46.4082 54.7189 45.4437 55.6694C44.4793 56.62 43.1716 57.1547 41.8076 57.1562ZM41.8076 47.9375C40.9751 47.9375 40.1613 48.1808 39.4691 48.6367C38.7769 49.0925 38.2374 49.7404 37.9188 50.4984C37.6002 51.2564 37.5168 52.0906 37.6792 52.8953C37.8417 53.7 38.2425 54.4392 38.8312 55.0193C39.4199 55.5995 40.1699 55.9946 40.9865 56.1547C41.803 56.3147 42.6493 56.2326 43.4185 55.9186C44.1876 55.6046 44.845 55.0729 45.3076 54.3907C45.7701 53.7085 46.0169 52.9064 46.0169 52.086C46.0157 50.9861 45.5718 49.9316 44.7827 49.1539C43.9936 48.3762 42.9236 47.9388 41.8076 47.9375Z" fill="white"/>
  </g>
</svg>