<?xml version="1.0" encoding="utf-8"?>
<svg viewBox="156.2186 227.0288 200 96.0134" xmlns="http://www.w3.org/2000/svg">
  <defs>
    <clipPath id="clip0_17_201">
      <rect width="57" height="57" fill="white"/>
    </clipPath>
  </defs>
  <g clip-path="url(#clip0_17_201)" transform="matrix(3.508771896362305, 0, 0, 3.508771896362305, 156.2186455163158, 175.0359065389023)" style="">
    <path d="M0.149888 22.7258L6.63113 39.5809H50.369L56.8503 22.7258C57.3038 21.5463 56.6915 20.2301 55.5032 19.8005C37.1442 13.1634 19.891 13.1509 1.49738 19.8005C0.30867 20.2301 -0.303774 21.5463 0.149888 22.7258Z" fill="white"/>
    <path d="M6.63135 39.5798H50.3717V42.1818H6.63135V39.5798Z" fill="#F4F4F4"/>
    <path d="M37.6398 26.7374C38.3998 32.7658 33.33 37.8356 27.3016 37.0758C23.1944 36.5581 19.8777 33.2415 19.3599 29.1342C18.6001 23.1059 23.6694 18.036 29.6978 18.7957C33.8051 19.3132 37.122 22.6301 37.6398 26.7374Z" fill="#E56353"/>
    <path d="M34.8791 25.4939H30.9419V21.5568H26.058V25.4939H22.1208V30.3777H26.058V34.3148H30.9419V30.3777H34.8791V25.4939Z" fill="white"/>
  </g>
</svg>