<?xml version="1.0" encoding="utf-8"?>
<svg viewBox="218.9927 263.5991 50 46.9999" xmlns="http://www.w3.org/2000/svg">
  <defs>
    <clipPath id="clip0_27_221">
      <rect width="50" height="47" fill="white"/>
    </clipPath>
  </defs>
  <g clip-path="url(#clip0_27_221)" transform="matrix(1, 0, 0, 1, 218.99267904449528, 263.59900295136873)">
    <path d="M25 47.0001C38.8071 47.0001 50 36.4788 50 23.5001C50 10.5214 38.8071 6.10352e-05 25 6.10352e-05C11.1929 6.10352e-05 0 10.5214 0 23.5001C0 36.4788 11.1929 47.0001 25 47.0001Z" fill="white"/>
    <path d="M20.947 5.19738L20.8012 5.4779C20.6759 5.71936 20.4772 5.86954 20.2619 5.93532C20.1165 5.97985 19.9639 5.98531 19.8205 5.95455C19.676 5.92358 19.5408 5.85517 19.4307 5.75357C19.2729 5.60743 19.1691 5.3935 19.1704 5.12431C19.1711 4.97859 19.2972 4.86099 19.4523 4.8614C19.6073 4.862 19.7324 4.98061 19.732 5.12634C19.7315 5.24008 19.7688 5.32469 19.825 5.37711C19.8588 5.40828 19.9012 5.42953 19.9458 5.43904C19.991 5.44876 20.0405 5.44673 20.0877 5.43236C20.166 5.40828 20.2416 5.34756 20.2944 5.24595L20.5142 4.82294C20.5586 4.73126 20.6568 4.6673 20.7709 4.6673H28.7313C28.8455 4.6673 28.9437 4.73105 28.988 4.82294L29.2078 5.24595C29.2606 5.34756 29.3364 5.40828 29.4145 5.43236C29.4619 5.44673 29.5114 5.44876 29.5564 5.43904C29.601 5.42953 29.6436 5.40828 29.6772 5.37711C29.7334 5.32469 29.7707 5.24029 29.7703 5.12634C29.7698 4.98061 29.8947 4.862 30.0499 4.8614C30.205 4.86099 30.3312 4.97879 30.3318 5.12431C30.3331 5.3937 30.2293 5.60743 30.0715 5.75357C29.9615 5.85517 29.8262 5.92338 29.6818 5.95455C29.5384 5.98531 29.3857 5.97985 29.2404 5.93532C29.025 5.86954 28.8265 5.71936 28.701 5.4779L28.555 5.19738H25.1347V35.8756H24.5105V5.19738H20.9464H20.947Z" fill="#15BDB2"/>
    <path d="M23.7864 30.9652C24.5276 30.9652 25.1285 30.4105 25.1285 29.7262C25.1285 29.0418 24.5276 28.4871 23.7864 28.4871C23.0452 28.4871 22.4443 29.0418 22.4443 29.7262C22.4443 30.4105 23.0452 30.9652 23.7864 30.9652Z" fill="#FED298"/>
    <path d="M30.5024 13.8436L30.5136 19.2019C30.5429 23.721 30.5677 27.7087 30.868 31.1583H30.283C30.0106 27.6987 30.0051 23.7162 29.9758 19.2057L29.9644 13.8489L30.5024 13.8436Z" fill="#F1F1F1"/>
    <path d="M39.0301 18.6825C40.7194 19.1734 41.6651 20.8583 41.143 22.4461C40.9031 23.1752 40.3969 23.6929 39.7641 24.0115L39.3072 25.7934L36.7186 24.7784L37.0567 24.0797C35.5899 23.9578 34.9647 23.884 35.478 22.8481C35.2642 22.7287 35.1795 22.3484 35.4478 22.1895C35.4478 22.1895 35.3245 22.0057 35.3703 21.8665C35.416 21.7272 35.6464 21.4979 35.653 21.4951C35.0749 21.4271 34.9319 21.1532 35.056 20.9595C35.2149 20.712 36.1655 20.4023 36.3304 19.671C36.4478 19.1499 36.8347 18.7858 36.9966 18.7269C37.6286 18.5117 38.338 18.4812 39.0298 18.6823L39.0301 18.6825Z" fill="#FED298"/>
    <path d="M36.9995 18.7265C36.9995 18.7265 39.1666 18.7255 39.6104 19.4519C40.0542 20.1783 39.0411 20.3222 39.3931 20.7466C39.745 21.171 39.4323 22.144 39.4323 22.144L39.8192 22.1915C39.8192 22.1915 39.9771 21.5744 40.4708 21.8157C40.9647 22.0569 40.5117 23.028 39.9411 23.2681C39.3703 23.5083 39.8145 24.0894 39.8145 24.0894C41.9347 22.8398 42.2381 20.2226 41.3469 19.1509C40.3651 17.9699 37.3291 17.4265 36.999 18.7267L36.9995 18.7265Z" fill="#666666"/>
    <path d="M22.6694 30.5641H30.2243L33.3985 26.4686C35.8184 22.1733 41.9416 25.2625 39.1084 29.3277L35.6373 34.3075C34.8144 35.4884 34.0614 36.0183 32.5266 35.9538H22.6696V30.5641H22.6694Z" fill="#15BDB2"/>
    <path d="M1.03369 30.2028H21.9971V36.7083H4.32072C2.89123 34.7343 1.77395 32.5448 1.03369 30.2028Z" fill="#FAD24D"/>
    <path d="M4.30176 36.6824H41.0903V38.511H5.7657C5.24743 37.9247 4.75844 37.3147 4.30176 36.6824ZM42.1118 28.3071H42.1122C42.674 28.3071 43.1337 28.7391 43.1337 29.2673V39.6762C42.4895 40.3142 41.8067 40.9173 41.0906 41.4841V29.2671C41.0906 28.7389 41.55 28.3069 42.112 28.3069L42.1118 28.3071Z" fill="#F1F1F1"/>
    <path d="M5.76539 38.5111H41.09V38.0291H5.34961C5.48569 38.1917 5.62457 38.352 5.76539 38.5111Z" fill="#D9DADA"/>
    <path d="M22.8464 30.2338V36.6824H21.2739V30.2338C21.2739 29.713 22.8464 29.713 22.8464 30.2338Z" fill="#FFF985"/>
    <path d="M40.4058 29.0868L40.4062 29.087C41.1452 29.5567 41.3407 30.5092 40.8407 31.2039L38.1835 34.8962C37.6838 35.5908 36.6705 35.7746 35.9315 35.3048L35.9313 35.3046C35.1923 34.8347 34.9968 33.8824 35.4968 33.1878L38.1538 29.4954C38.6536 28.801 39.6668 28.617 40.4058 29.0868Z" fill="#FAD24D"/>
    <path d="M36.0336 25.1516L30.6951 31.5024L25.2596 28.7798C23.6146 27.9556 22.473 29.9824 23.8112 30.8216L30.3755 34.9367C30.8934 35.2614 31.5744 35.1893 32.0063 34.7985C32.167 34.7058 32.3129 34.5859 32.4361 34.4394L38.6252 27.0766C39.9797 25.4651 37.3877 23.5405 36.0336 25.1516Z" fill="#21D0C3"/>
    <path d="M22.8467 35.4759H41.0905V36.6826H22.8467V35.4759Z" fill="#EEEEEE"/>
    <path d="M26.8853 7.69962H31.9603V12.9C31.9603 13.4192 31.5088 13.8436 30.9565 13.8436H27.8893C27.3368 13.8436 26.8853 13.419 26.8853 12.9V7.69962Z" fill="#D9DADA"/>
    <path d="M26.8853 7.69962H31.9603V12.4272C31.9603 13.0095 31.4536 13.4858 30.8342 13.4858H27.393C27.2797 13.4858 27.1705 13.4696 27.0672 13.4402C26.9526 13.287 26.8853 13.1004 26.8853 12.9V7.69962Z" fill="#EEEEEE"/>
    <path d="M26.8853 8.76727H31.9603V11.5606H26.8853V8.76727Z" fill="#F1F1F1"/>
    <path d="M28.1118 13.8438H28.6712V14.4555H28.1118V13.8438Z" fill="#EEEEEE"/>
    <path d="M27.7222 14.4553H29.0599V14.9627H27.7222V14.4553Z" fill="#F1F1F1"/>
    <path d="M29.423 8.61365C30.3338 8.61365 31.0724 9.30767 31.0724 10.1638C31.0724 11.02 30.334 11.714 29.423 11.714C28.5122 11.714 27.7739 11.02 27.7739 10.1638C27.7739 9.30767 28.5122 8.61365 29.423 8.61365Z" fill="#FF5B62"/>
    <path d="M29.2285 5.41599C29.2285 5.31398 29.3168 5.2312 29.4251 5.2312C29.5336 5.2312 29.6219 5.31398 29.6219 5.41599V7.69964C29.6219 7.80165 29.5336 7.88443 29.4251 7.88443C29.3168 7.88443 29.2285 7.80185 29.2285 7.69964V5.41599Z" fill="#F1F1F1"/>
    <path d="M29.1351 9.16742H29.7109V9.89281H30.483V10.4344H29.7109V11.1604H29.1351V10.4344H28.3628V9.89281H29.1351V9.16742Z" fill="#DBDBDB"/>
    <path d="M3.5056 8.827H20.549C21.1349 8.827 21.6142 9.27774 21.6142 9.82826V20.2167C21.6142 20.7675 21.1349 21.218 20.549 21.218H3.5056C2.91972 21.218 2.44043 20.7675 2.44043 20.2167V9.82826C2.44043 9.27753 2.91972 8.827 3.5056 8.827Z" fill="#EEEEEE"/>
    <path d="M5.90283 9.89078H20.6826V19.4031H5.90283V9.89078Z" fill="#21D0C3"/>
    <path d="M4.20693 16.3958C4.59407 16.3958 4.908 16.6909 4.908 17.0549C4.908 17.4188 4.59407 17.7139 4.20693 17.7139C3.81979 17.7139 3.50586 17.419 3.50586 17.0549C3.50586 16.6909 3.81979 16.3958 4.20693 16.3958ZM4.20693 18.1446C4.40481 18.1446 4.56522 18.2953 4.56522 18.4814C4.56522 18.6672 4.40481 18.8181 4.20693 18.8181C4.00905 18.8181 3.84864 18.6674 3.84864 18.4814C3.84864 18.2953 4.00905 18.1446 4.20693 18.1446Z" fill="#EEEEEE"/>
    <path d="M9.62018 11.5013C9.62901 11.5158 9.62944 11.5341 9.61997 11.5492L9.62018 11.5013ZM15.2727 11.5013C15.2813 11.5158 15.2815 11.5341 15.272 11.5492L15.2727 11.5013ZM6.39646 11.8532C6.36804 11.8532 6.34543 11.8316 6.34543 11.8055C6.34543 11.7792 6.36825 11.7581 6.39646 11.7581H8.18639L8.51022 11.0187C8.52121 10.9947 8.5507 10.9827 8.57633 10.993C8.58946 10.9979 8.59915 11.0078 8.6041 11.0194L8.60432 11.0192L9.09825 12.1912L9.53255 11.5007C9.54676 11.4778 9.57798 11.4705 9.6021 11.4839C9.61006 11.4885 9.61609 11.4942 9.62018 11.5013L9.87555 11.8692L10.2405 11.5043C10.2592 11.4851 10.2913 11.4847 10.312 11.5023C10.3157 11.5061 10.3187 11.5096 10.321 11.5142H10.3217L10.467 11.7583H13.8382L14.1627 11.019C14.1735 10.9949 14.2032 10.9829 14.2288 10.9932C14.242 10.9981 14.2516 11.008 14.2564 11.0196L14.2568 11.0194L14.751 12.1914L15.185 11.5009C15.1993 11.478 15.2303 11.4707 15.2544 11.4841C15.2621 11.4887 15.2684 11.4944 15.2729 11.5015L15.528 11.8694L15.8928 11.5045C15.9117 11.4853 15.9438 11.4849 15.9645 11.5025C15.9684 11.5063 15.9712 11.5098 15.9738 11.5144H15.9742L16.1199 11.7585H17.0439V11.854L16.0898 11.8542C16.0721 11.8542 16.0549 11.8453 16.0459 11.8296L15.9193 11.6176L15.558 11.9789C15.5552 11.9816 15.5522 11.9842 15.5487 11.9862C15.525 12.0006 15.4936 11.9939 15.4787 11.9718L15.2316 11.6154L14.7869 12.3226C14.7813 12.3325 14.7723 12.3402 14.7611 12.3443C14.735 12.3544 14.7053 12.342 14.6952 12.3171L14.2092 11.1641L13.9209 11.8202C13.9145 11.8395 13.8953 11.8534 13.8723 11.8534H13.0379C13.0364 11.854 13.0342 11.854 13.0323 11.854H10.438C10.4199 11.854 10.4024 11.8451 10.3936 11.8294L10.2674 11.6174L9.90569 11.9787C9.90289 11.9814 9.89988 11.984 9.89622 11.986C9.87253 12.0004 9.84174 11.9937 9.82624 11.9716L9.57884 11.6152L9.13443 12.3224C9.12883 12.3323 9.12022 12.34 9.10837 12.3441C9.08232 12.3542 9.05282 12.3418 9.0427 12.3169L8.55652 11.1639L8.26864 11.82C8.26175 11.8393 8.2428 11.8532 8.21998 11.8532H6.39668H6.39646ZM11.76 14.3907C11.751 14.4049 11.7505 14.4231 11.76 14.4383V14.3907ZM16.3473 14.3907C16.3387 14.4049 16.3381 14.4231 16.3478 14.4383L16.3473 14.3907ZM17.0434 14.6672L16.8693 15.0809L16.435 14.3899C16.4205 14.367 16.3897 14.3593 16.3656 14.3729C16.3574 14.3777 16.3514 14.3836 16.3471 14.3907L16.092 14.7585L15.7272 14.3939C15.708 14.3745 15.6762 14.3733 15.6557 14.3915C15.6516 14.3947 15.6491 14.3988 15.6465 14.4026H15.6458L15.5003 14.6471C14.3765 14.6471 14.3173 14.6469 13.1938 14.6469L12.8693 13.908C12.8585 13.8837 12.8288 13.8724 12.8034 13.8823C12.7903 13.8871 12.7806 13.897 12.7754 13.9086L12.2813 15.0811L11.8476 14.3901C11.833 14.3672 11.8022 14.3595 11.7779 14.3731C11.7703 14.3779 11.7639 14.3838 11.76 14.3909L11.5044 14.7587L11.1401 14.3941C11.1205 14.3747 11.0884 14.3735 11.068 14.3917C11.0643 14.3949 11.0611 14.399 11.0585 14.4028L10.9129 14.6473H6.39624C6.36782 14.6473 6.34521 14.669 6.34521 14.6951C6.34521 14.7214 6.36804 14.7429 6.39624 14.7429H10.9424C10.9603 14.7429 10.9771 14.734 10.9866 14.7186L11.113 14.5065L11.4747 14.8677C11.4775 14.8704 11.4803 14.8728 11.4837 14.875C11.5074 14.8894 11.5389 14.8829 11.5539 14.8613L11.8013 14.5044L12.2455 15.212C12.2511 15.2215 12.2604 15.229 12.2718 15.2337C12.2976 15.2432 12.3274 15.2311 12.3377 15.2068L12.8237 14.0533L13.1115 14.7093C13.118 14.7285 13.1374 14.7427 13.1602 14.7427C14.3053 14.7427 14.3851 14.7429 15.5302 14.7429C15.5481 14.7429 15.5653 14.734 15.5746 14.7186L15.7012 14.5065L16.0629 14.8677C16.0653 14.8704 16.0687 14.8728 16.0717 14.875C16.0954 14.8894 16.1264 14.8829 16.1419 14.8613L16.3891 14.5044L16.8337 15.212C16.8391 15.2215 16.8479 15.229 16.8596 15.2337C16.8856 15.2432 16.9151 15.2311 16.9254 15.2068L17.0434 14.9266V14.6676V14.6672ZM6.36244 17.1393C6.3661 17.1391 7.71807 17.0455 7.98076 17.1235C8.03115 17.1382 8.07356 17.0822 8.12007 17.0196C8.23936 16.861 8.37824 16.677 8.77291 16.9721C9.22378 17.3095 9.51532 17.5969 9.60769 17.6912C9.71212 17.6453 9.98558 17.5163 10.0209 17.421C10.0506 17.3406 10.1731 17.2785 10.3271 17.2334C10.5226 17.1751 10.7762 17.1382 10.9336 17.1267C11.0133 17.1212 11.1097 17.0761 11.2118 17.0285C11.4299 16.9267 11.6668 16.8156 11.9006 16.9836C12.055 17.0953 12.1452 17.255 12.2255 17.3963C12.3054 17.538 12.3734 17.658 12.4712 17.6602C12.6019 17.6639 12.7778 17.5256 12.9393 17.3989C13.048 17.3137 13.1509 17.2332 13.2422 17.1939C13.388 17.1314 13.6137 17.1261 13.8053 17.1212C13.9168 17.1186 14.0154 17.116 14.0719 17.1034C14.1158 17.0937 14.1442 17.0557 14.1728 17.0182C14.237 16.9338 14.3001 16.8502 14.49 16.8925C14.6267 16.9227 14.7906 16.9897 14.9351 17.0731C15.0707 17.151 15.1913 17.2443 15.2595 17.338C15.2824 17.369 15.3188 17.4052 15.3644 17.4418C15.4499 17.5096 15.5659 17.5756 15.6865 17.6068C15.8006 17.6368 15.9191 17.6345 16.0177 17.5708C16.0431 17.5542 16.0681 17.5331 16.0915 17.5072C16.2425 17.3392 16.3749 17.2366 16.5239 17.1745C16.6725 17.1127 16.8329 17.0927 17.0422 17.0895H17.0432V17.2073C16.8503 17.2101 16.7045 17.2277 16.5743 17.2822C16.4442 17.3364 16.3256 17.4293 16.1863 17.5833C16.1566 17.6173 16.1234 17.6451 16.0887 17.6675C15.9552 17.7541 15.8 17.7584 15.6534 17.7201C15.5132 17.6839 15.3806 17.6086 15.2834 17.5315C15.2296 17.4886 15.185 17.4441 15.1564 17.4052C15.0985 17.3259 14.9917 17.2439 14.8696 17.1737C14.7357 17.0964 14.5852 17.0348 14.4611 17.0071C14.3531 16.983 14.3139 17.0346 14.2745 17.086C14.2329 17.1417 14.1907 17.1973 14.1005 17.2178C14.0314 17.2332 13.9261 17.236 13.8083 17.239C13.6285 17.2431 13.4171 17.2484 13.2935 17.301C13.2183 17.3332 13.1219 17.4091 13.0196 17.4892C12.8409 17.6295 12.646 17.7821 12.4673 17.7778C12.2959 17.7734 12.2124 17.6254 12.1142 17.4514C12.0403 17.3204 11.9566 17.1723 11.8239 17.0769C11.6523 16.9535 11.4517 17.0478 11.2667 17.1338C11.1541 17.1864 11.0467 17.2368 10.9429 17.2441C10.7922 17.2548 10.5499 17.2902 10.3641 17.3453C10.245 17.3803 10.1533 17.4202 10.1389 17.4588C10.0775 17.6254 9.6176 17.8155 9.61631 17.8161L9.57475 17.8333L9.54418 17.8009C9.54353 17.7999 9.238 17.4704 8.69475 17.064C8.40364 16.8464 8.30589 16.9757 8.22235 17.087C8.1472 17.1864 8.07981 17.2761 7.94222 17.235C7.70343 17.1642 6.37493 17.2562 6.37062 17.2566L6.36179 17.1384L6.36244 17.1393Z" fill="#F1F1F1"/>
    <path d="M17.4429 12.0417H20.2056V12.1514H17.4429V12.0417ZM17.4429 10.9698H18.3578V11.0795H17.4429V10.9698ZM17.4429 11.4549H19.2399V11.5646H17.4429V11.4549ZM17.4429 14.7172H20.2056V14.8269H17.4429V14.7172ZM17.4429 13.6451H18.3578V13.7548H17.4429V13.6451ZM17.4429 14.1302H19.2399V14.2399H17.4429V14.1302ZM17.4429 17.9163H20.2056V18.026H17.4429V17.9163ZM17.4429 16.8444H18.3578V16.9541H17.4429V16.8444ZM17.4429 17.3295H19.2399V17.4392H17.4429V17.3295Z" fill="#F1F1F1"/>
    <path d="M3.72639 10.8131H4.67508C4.94056 10.8131 5.15782 11.0171 5.15782 11.2667V11.2669C5.15782 11.5164 4.94056 11.7205 4.67508 11.7205H3.72639C3.46091 11.7205 3.24365 11.5164 3.24365 11.2669V11.2667C3.24365 11.0171 3.46091 10.8131 3.72639 10.8131Z" fill="#FAD24D"/>
    <path d="M3.72639 12.5497H4.67508C4.94056 12.5497 5.15782 12.7537 5.15782 13.0035C5.15782 13.253 4.94056 13.4572 4.67508 13.4572H3.72639C3.46091 13.4572 3.24365 13.253 3.24365 13.0035C3.24365 12.7539 3.46091 12.5497 3.72639 12.5497Z" fill="#FF5B62"/>
    <path d="M3.72639 14.2863H4.67508C4.94056 14.2863 5.15782 14.4905 5.15782 14.74C5.15782 14.9896 4.94056 15.1938 4.67508 15.1938H3.72639C3.46091 15.1938 3.24365 14.9896 3.24365 14.74C3.24365 14.4905 3.46091 14.2863 3.72639 14.2863Z" fill="#21D0C3"/>
    <path d="M4.20687 16.5309C4.51499 16.5309 4.76454 16.7654 4.76454 17.0551C4.76454 17.3445 4.51499 17.5793 4.20687 17.5793C3.89897 17.5793 3.64941 17.3445 3.64941 17.0551C3.64941 16.7654 3.89897 16.5309 4.20687 16.5309ZM4.20687 18.248C4.34403 18.248 4.45513 18.3524 4.45513 18.4814C4.45513 18.6103 4.34403 18.7147 4.20687 18.7147C4.06971 18.7147 3.95861 18.6103 3.95861 18.4814C3.95861 18.3524 4.06971 18.248 4.20687 18.248Z" fill="#DBDBDB"/>
    <path d="M9.00146 21.218H14.4076V21.7114H9.00146V21.218Z" fill="#EEEEEE"/>
    <path d="M11.019 21.7116H12.3897V30.203H11.019V21.7116Z" fill="#F1F1F1"/>
  </g>
</svg>